<svg width="44" height="47" viewBox="0 0 44 47" fill="none" xmlns="http://www.w3.org/2000/svg">
<g clip-path="url(#clip0)">
<path d="M17.1 25.2C16.1 23.9 16.3 22.1 17.5 21.1C18.8 20.1 20.6 20.3 21.6 21.5C22.6 22.8 22.4 24.6 21.2 25.6C20.7 26 20 26.2 19.4 26.2C18.6 26.3 17.7 25.9 17.1 25.2ZM11.6 18.4C10.6 17.1 10.8 15.3 12 14.3C13.3 13.3 15.1 13.5 16.1 14.7C17.1 16 16.9 17.8 15.7 18.8C15.2 19.2 14.5 19.4 13.9 19.4C13.1 19.4 12.2 19.1 11.6 18.4ZM6.09999 11.6C5.09999 10.3 5.29999 8.49999 6.49999 7.49999C7.79999 6.49999 9.6 6.7 10.6 7.89999C11.6 9.2 11.4 11 10.2 12C9.7 12.4 9 12.7 8.39999 12.7C7.59999 12.6 6.69999 12.3 6.09999 11.6ZM0.599995 4.69999C-0.400005 3.49999 -0.200005 1.59999 0.999995 0.599995C2.29999 -0.400005 4.09999 -0.200005 5.09999 0.999995C6.09999 2.29999 5.89999 4.09999 4.69999 5.09999C4.19999 5.59999 3.6 5.79999 2.9 5.79999C2.1 5.79999 1.19999 5.49999 0.599995 4.69999Z" fill="#27ACE2"/>
<path d="M17.1 25.2C16.1 23.9 16.3 22.1 17.5 21.1C18.8 20.1 20.6 20.3 21.6 21.5C22.6 22.8 22.4 24.6 21.2 25.6C20.7 26 20 26.2 19.4 26.2C18.6 26.3 17.7 25.9 17.1 25.2ZM11.6 18.4C10.6 17.1 10.8 15.3 12 14.3C13.3 13.3 15.1 13.5 16.1 14.7C17.1 16 16.9 17.8 15.7 18.8C15.2 19.2 14.5 19.4 13.9 19.4C13.1 19.4 12.2 19.1 11.6 18.4ZM6.09999 11.6C5.09999 10.3 5.29999 8.49999 6.49999 7.49999C7.79999 6.49999 9.6 6.7 10.6 7.89999C11.6 9.2 11.4 11 10.2 12C9.7 12.4 9 12.7 8.39999 12.7C7.59999 12.6 6.69999 12.3 6.09999 11.6ZM0.599995 4.69999C-0.400005 3.49999 -0.200005 1.59999 0.999995 0.599995C2.29999 -0.400005 4.09999 -0.200005 5.09999 0.999995C6.09999 2.29999 5.89999 4.09999 4.69999 5.09999C4.19999 5.59999 3.6 5.79999 2.9 5.79999C2.1 5.79999 1.19999 5.49999 0.599995 4.69999Z" fill="#27ACE2"/>
<path d="M19.4 20.4C20 20.4 20.7 20.6 21.2 21C22.5 22 22.7 23.8 21.6 25.1C20.6 26.4 18.8 26.6 17.5 25.5C16.2 24.5 16.1 22.7 17.1 21.4C17.7 20.8 18.6 20.4 19.4 20.4ZM13.9 27.2C14.5 27.2 15.2 27.4 15.7 27.8C17 28.8 17.2 30.6 16.1 31.9C15.1 33.2 13.3 33.4 12 32.3C10.7 31.3 10.6 29.5 11.6 28.2C12.2 27.6 13.1 27.2 13.9 27.2ZM8.39995 34C8.99995 34 9.69995 34.2 10.2 34.7C11.5 35.7 11.7 37.5 10.6 38.8C9.59995 40.1 7.79995 40.2 6.49995 39.2C5.19995 38.2 5.09995 36.4 6.09995 35.1C6.69995 34.4 7.59995 34 8.39995 34ZM2.89995 40.8C3.49995 40.8 4.19995 41 4.69995 41.5C5.99995 42.5 6.19995 44.3 5.09995 45.6C4.09995 46.9 2.29995 47 0.999952 46C-0.300048 45 -0.400048 43.1 0.599952 41.9C1.19995 41.2 2.09995 40.8 2.89995 40.8Z" fill="#27ACE2"/>
<path d="M37.9999 25.2C36.9999 23.9 37.1999 22.1 38.3999 21.1C39.6999 20.1 41.4999 20.3 42.4999 21.5C43.4999 22.8 43.2999 24.6 42.0999 25.6C41.5999 26 40.8999 26.2 40.2999 26.2C39.3999 26.3 38.4999 25.9 37.9999 25.2ZM32.4999 18.4C31.4999 17.1 31.6999 15.3 32.8999 14.3C34.1999 13.3 35.9999 13.5 36.9999 14.7C37.9999 16 37.7999 17.8 36.5999 18.8C36.0999 19.2 35.3999 19.4 34.7999 19.4C33.8999 19.4 32.9999 19.1 32.4999 18.4ZM26.9999 11.6C25.9999 10.3 26.1999 8.49999 27.3999 7.49999C28.6999 6.49999 30.4999 6.7 31.4999 7.89999C32.4999 9.2 32.2999 11 31.0999 12C30.5999 12.4 29.8999 12.7 29.2999 12.7C28.3999 12.6 27.5999 12.3 26.9999 11.6ZM21.4999 4.69999C20.4999 3.49999 20.6999 1.59999 21.8999 0.599995C23.1999 -0.400005 24.9999 -0.200005 25.9999 0.999995C26.9999 2.29999 26.7999 4.09999 25.5999 5.09999C25.0999 5.49999 24.3999 5.79999 23.7999 5.79999C22.8999 5.79999 22.0999 5.49999 21.4999 4.69999Z" fill="#27ACE2"/>
<path d="M37.9999 25.2C36.9999 23.9 37.1999 22.1 38.3999 21.1C39.6999 20.1 41.4999 20.3 42.4999 21.5C43.4999 22.8 43.2999 24.6 42.0999 25.6C41.5999 26 40.8999 26.2 40.2999 26.2C39.3999 26.3 38.4999 25.9 37.9999 25.2ZM32.4999 18.4C31.4999 17.1 31.6999 15.3 32.8999 14.3C34.1999 13.3 35.9999 13.5 36.9999 14.7C37.9999 16 37.7999 17.8 36.5999 18.8C36.0999 19.2 35.3999 19.4 34.7999 19.4C33.8999 19.4 32.9999 19.1 32.4999 18.4ZM26.9999 11.6C25.9999 10.3 26.1999 8.49999 27.3999 7.49999C28.6999 6.49999 30.4999 6.7 31.4999 7.89999C32.4999 9.2 32.2999 11 31.0999 12C30.5999 12.4 29.8999 12.7 29.2999 12.7C28.3999 12.6 27.5999 12.3 26.9999 11.6ZM21.4999 4.69999C20.4999 3.49999 20.6999 1.59999 21.8999 0.599995C23.1999 -0.400005 24.9999 -0.200005 25.9999 0.999995C26.9999 2.29999 26.7999 4.09999 25.5999 5.09999C25.0999 5.49999 24.3999 5.79999 23.7999 5.79999C22.8999 5.79999 22.0999 5.49999 21.4999 4.69999Z" fill="#27ACE2"/>
<path d="M40.2 20.4C40.8 20.4 41.5 20.6 42 21C43.3 22 43.5 23.8 42.4 25.1C41.4 26.4 39.6 26.6 38.3 25.5C37 24.5 36.9 22.7 37.9 21.4C38.5 20.8 39.4 20.4 40.2 20.4ZM34.7 27.2C35.3 27.2 36 27.4 36.5 27.8C37.8 28.8 38 30.6 36.9 31.9C35.9 33.2 34.1 33.4 32.8 32.3C31.5 31.3 31.4 29.5 32.4 28.2C33 27.6 33.9 27.2 34.7 27.2ZM29.2 34C29.8 34 30.5 34.2 31 34.7C32.3 35.7 32.5 37.5 31.4 38.8C30.4 40.1 28.6 40.2 27.3 39.2C26 38.2 25.9 36.4 26.9 35.1C27.6 34.4 28.4 34 29.2 34ZM23.7 40.8C24.3 40.8 25 41 25.5 41.5C26.8 42.5 27 44.3 25.9 45.6C24.9 46.9 23.1 47 21.8 46C20.5 45 20.4 43.1 21.4 41.9C22.1 41.2 22.9 40.8 23.7 40.8Z" fill="#27ACE2"/>
</g>
<defs>
<clipPath id="clip0">
<rect width="43.2" height="46.7" fill="white"/>
</clipPath>
</defs>
</svg>
